<svg id="regular" enable-background="new 0 0 24 24" height="512" viewBox="0 0 24 24" width="512" xmlns="http://www.w3.org/2000/svg"><path d="m0 10.34c0 5.098 4.229 9.388 9.997 10.191.387.085.473.173.475.173.071.161-.11.931-.188 1.673-.197 1.315.641 2.002 2.032 1.391 1.316-.577 6.693-4.141 9.112-7.061 2.655-3.056 3.296-6.743 1.759-10.117-4.86-10.658-23.187-7.585-23.187 3.75zm20.284 5.396c-2.202 2.658-7.152 5.985-8.488 6.62.172-1.38.679-2.816-1.534-3.301-5.077-.708-8.762-4.373-8.762-8.715 0-9.719 16.128-12.331 20.321-3.128 1.283 2.816.728 5.918-1.537 8.524z"/><path d="m7.598 11.739h-1.206v-4.141c0-.414-.336-.75-.75-.75s-.75.336-.75.75v4.892c0 .414.336.75.75.75h1.956c.992-.001.992-1.501 0-1.501z"/><path d="m8.805 7.598c.224 3.768-.551 5.642.75 5.642.414 0 .75-.336.75-.75v-4.892c0-.992-1.5-.993-1.5 0z"/><path d="m18.358 8.348c.992 0 .993-1.5 0-1.5h-1.956c-.414 0-.75.336-.75.75v4.892c0 .414.336.75.75.75h1.956c.992 0 .993-1.5 0-1.5h-1.206v-.946h1.206c.992 0 .993-1.5 0-1.5h-1.206v-.946z"/><path d="m13.695 7.598v2.184l-1.541-2.569c-.392-.652-1.394-.371-1.394.386v4.892c0 .414.336.75.75.75s.75-.336.75-.75v-2.184l1.541 2.569c.139.23.385.364.644.364.066 0 .134-.009.2-.027.325-.09.55-.386.55-.723v-4.892c0-.992-1.5-.993-1.5 0z"/></svg>