<?xml version="1.0" encoding="utf-8"?>
<!-- Generator: Adobe Illustrator 22.0.1, SVG Export Plug-In . SVG Version: 6.00 Build 0)  -->
<svg version="1.1" id="regular" xmlns="http://www.w3.org/2000/svg" xmlns:xlink="http://www.w3.org/1999/xlink" x="0px" y="0px"
	 viewBox="0 0 512 512" style="enable-background:new 0 0 512 512;" xml:space="preserve">
<g>
	<path style="fill:#F8F9FA;" d="M0,220.6C0,329.3,90.2,420.9,213.3,438c8.3,1.8,10.1,3.7,10.1,3.7c1.5,3.4-2.3,19.9-4,35.7
		c-4.2,28.1,13.7,42.7,43.3,29.7c28.1-12.3,142.8-88.3,194.4-150.6c56.6-65.2,70.3-143.9,37.5-215.8C391-86.8,0-21.2,0,220.6
		L0,220.6z M432.7,335.7c-47,56.7-152.6,127.7-181.1,141.2c3.7-29.4,14.5-60.1-32.7-70.4C110.6,391.4,32,313.2,32,220.6
		c0-207.3,344.1-263.1,433.5-66.7C492.9,213.9,481,280.1,432.7,335.7L432.7,335.7z"/>
	<path style="fill:#F8F9FA;" d="M162.1,250.4h-25.7v-88.3c0-8.8-7.2-16-16-16s-16,7.2-16,16v104.4c0,8.8,7.2,16,16,16h41.7
		C183.3,282.4,183.3,250.4,162.1,250.4z"/>
	<path style="fill:#F8F9FA;" d="M187.8,162.1c4.8,80.4-11.8,120.4,16,120.4c8.8,0,16-7.2,16-16V162.1
		C219.8,140.9,187.8,140.9,187.8,162.1L187.8,162.1z"/>
	<path style="fill:#F8F9FA;" d="M391.6,178.1c21.2,0,21.2-32,0-32h-41.7c-8.8,0-16,7.2-16,16v104.4c0,8.8,7.2,16,16,16h41.7
		c21.2,0,21.2-32,0-32h-25.7v-20.2h25.7c21.2,0,21.2-32,0-32h-25.7v-20.2H391.6z"/>
	<path style="fill:#F8F9FA;" d="M292.2,162.1v46.6l-32.9-54.8c-8.4-13.9-29.7-7.9-29.7,8.2v104.4c0,8.8,7.2,16,16,16
		c8.8,0,16-7.2,16-16v-46.6l32.9,54.8c3,4.9,8.2,7.8,13.7,7.8c1.4,0,2.9-0.2,4.3-0.6c6.9-1.9,11.7-8.2,11.7-15.4V162.1
		C324.2,140.9,292.2,140.9,292.2,162.1L292.2,162.1z"/>
</g>
</svg>
