<?xml version="1.0" encoding="utf-8"?>
<!-- Generator: Adobe Illustrator 21.1.0, SVG Export Plug-In . SVG Version: 6.00 Build 0)  -->
<svg version="1.1" id="圖層_1" xmlns="http://www.w3.org/2000/svg" xmlns:xlink="http://www.w3.org/1999/xlink" x="0px" y="0px"
	 viewBox="0 0 325.8 82.7" style="enable-background:new 0 0 325.8 82.7;" xml:space="preserve">
<g>
	<path d="M37.7,33.6c-1.4-1-1.6-1.2-1.6-1.7c0-1,1.9-1.6,3.5-1.6c1.9,0,4.5,1,8,3.2c4.1,2.9,8.1,6.7,8.1,10.2c0,2.2-1.1,3.2-3.5,4.1
		c-1.1,0.4-2.2,1.4-3.7,2.9C42.6,56.5,36.7,61.8,29.8,67c-7.5,5.6-15.9,10.7-24.5,14.2c-1.7,0.9-2.7,1.1-3.5,1.1
		c-1,0-1.7-0.7-1.7-1.7c0-0.9,0.7-1.4,2.1-2.2c8.5-5.5,16.1-11.5,22.5-17.4c5.4-5.1,10-10.1,13.7-14.8c2.6-3.5,3.9-5.5,3.9-7.2
		C42.2,37.5,41,35.9,37.7,33.6z M107.1,68.9c-2.9,0-4.6-1.9-6.1-5.2c-3.7-8.2-7.1-13.8-11.7-19.3c-4.1-5-9-9.2-14.1-12.8
		c-1.6-1.1-2.5-1.9-2.5-2.6c0-1.1,0.9-1.6,1.6-1.6c1,0,2,0.4,3.9,1.1c8,3.2,15.4,8.1,22.2,14.1c6,5.4,12.5,13.8,12.5,19.3
		C112.8,66.5,111.2,68.9,107.1,68.9z M119,13c0,6.8-5.6,12.5-12.5,12.5c-6.8,0-12.5-5.6-12.5-12.5s5.6-12.5,12.5-12.5
		C113.4,0.5,119,6.1,119,13z M98.5,13c0,4.5,3.6,8.1,8.1,8.1c4.5,0,8.1-3.6,8.1-8.1s-3.6-8.1-8.1-8.1C102.1,4.9,98.5,8.3,98.5,13z"
		/>
</g>
<g>
	<path d="M155.9,9.5c4.6,1,9.1,3,12.3,5.1c4.8,3.2,6.7,6.1,6.7,10.2c0,2.9-1.8,4.8-4.2,4.8c-2.3,0-3.3-0.9-4.7-3.7
		c-1.1-2.1-2.4-4.5-4.6-7.5c-2.3-2.9-5.2-5.2-8-7c-0.5-0.3-0.9-0.9-0.9-1.3c0-0.4,0.6-0.9,1.2-0.9C154,9.2,154.7,9.2,155.9,9.5z
		 M227,13.3c0,0.5-0.2,1.2-0.8,2c-6.6,10.5-15.1,20.6-24.6,29.8c-9,8.8-18.6,16.3-29,24.1c-1.2,0.9-2.3,1.9-2.8,2.5
		c-0.9,1.4-2.1,2.2-3.5,2.2c-2.5,0-4.6-1.9-7.1-4.3c-3.4-3.6-4.7-6.4-4.7-8.9c0-1.6,0.4-2.8,1.2-2.8c0.4,0,0.8,0.3,1.5,1.2
		c2.2,2.6,3.5,3.9,5.3,3.9c1.1,0,2.9-0.6,5.2-2c9.8-5.7,20-13.1,29.7-21.4c10-8.8,19.5-17.9,26.4-26.7c0.5-0.7,1.1-1,1.5-1
		C226,11.9,227,12.7,227,13.3z"/>
</g>
<g>
	<path d="M308.2,17.6c2.1-0.5,3.1-1.2,3.9-2.1c0.9-1,1.8-1.5,2.9-1.5c1.6,0,3.4,0.9,6.7,3.4c2.6,2.1,4.2,4.1,4.2,5.7
		c0,1.9-1.4,2.4-3.3,2.6c-1.5,0.2-2.5,0.4-3.4,1.3c-6.3,5.8-14.6,13.6-22.1,19.7c-1.1,0.9-1.6,1-2.3,1c-0.6,0-1.2-0.7-1.2-1.1
		c0-0.5,0-0.9,0.8-1.8c6.2-6.6,12.3-14,17.8-22.6c0.5-0.5,0-0.9-0.4-0.7c-9.5,2.5-20.7,5.6-30.7,8.7c0.9,3.8,1.8,7.9,2.9,12.2
		c2.6,10.5,5.2,20.6,7.8,30c0.7,2.6,1.3,4.7,1.3,6c0,2.4-1.9,4.1-3.9,4.1c-1.9,0-3.6-0.4-4.3-3.6c-2.5-11.6-5.1-23.7-7.7-34.9
		c-0.9-4.2-1.8-8.1-2.6-11.9c-8.4,2.6-14.5,4.6-19.7,6.7c-2.4,1-3.3,1.5-3.9,2.1c-0.8,0.9-2.1,1.4-3.2,1.4c-2.1,0-4.1-1.1-7.5-4.5
		c-2-2.1-3.4-4.3-3.4-6.8c0-1.2,0.3-1.6,0.9-1.6c0.3,0,0.8,0.3,1.2,0.8c3.1,2.9,4.6,3.6,6.9,3.6c1.5,0,3.5-0.3,6.4-1.1
		c6.4-1.6,13.6-3.6,21-5.6c-1.3-5.7-2.8-11.7-4.1-16.2c-0.4-1.9-0.9-3.3-1.6-4.5c-0.7-1.1-1.8-1.6-3.1-1.8c-0.9-0.1-2.1-0.1-3.6-0.1
		c-0.7,0-1-0.2-1-0.8c0-0.4,0.3-1.3,1.1-1.9c1.6-1.2,3.9-2.1,5.5-2.1c2.3,0,6,1.3,8.9,3c1.9,1,3.3,2.3,3.3,3.7c0,1-0.4,1.9-0.9,2.5
		c-0.4,0.7-0.8,1.2-0.8,1.8c0,0.4,0,1.2,0.2,2.5c0.7,3.6,1.4,7.3,2.4,12C290.3,22.6,300.9,19.6,308.2,17.6z"/>
</g>
</svg>
