<?xml version="1.0" encoding="utf-8"?>
<!-- Generator: Adobe Illustrator 22.0.1, SVG Export Plug-In . SVG Version: 6.00 Build 0)  -->
<svg version="1.1" id="Capa_1" xmlns="http://www.w3.org/2000/svg" xmlns:xlink="http://www.w3.org/1999/xlink" x="0px" y="0px"
	 width="512px" height="512px" viewBox="0 0 512 512" style="enable-background:new 0 0 512 512;" xml:space="preserve">
<style type="text/css">
	.st0{fill:none;}
</style>
<g>
	<g>
		<g>
			<circle class="st0" cx="202.7" cy="202.7" r="160"/>
			<path d="M503.9,464.8L364.1,325c25.8-34,41.3-76.4,41.3-122.3C405.3,90.9,314.4,0,202.7,0S0,90.9,0,202.7s90.9,202.7,202.7,202.7
				c45.9,0,88.3-15.4,122.3-41.3l139.8,139.8c5.4,5.4,12.5,8.1,19.5,8.1s14.2-2.7,19.5-8.1C514.7,493.1,514.7,475.6,503.9,464.8z
				 M202.7,362.7c-88.2,0-160-71.8-160-160s71.8-160,160-160s160,71.8,160,160S290.9,362.7,202.7,362.7z"/>
		</g>
	</g>
</g>
</svg>
