<?xml version="1.0" encoding="utf-8"?>
<!-- Generator: Adobe Illustrator 22.0.1, SVG Export Plug-In . SVG Version: 6.00 Build 0)  -->
<svg version="1.1" id="圖層_1" focusable="false" xmlns="http://www.w3.org/2000/svg" xmlns:xlink="http://www.w3.org/1999/xlink"
	 x="0px" y="0px" width="512px" height="512px" viewBox="0 0 512 512" style="enable-background:new 0 0 512 512;"
	 xml:space="preserve">
<style type="text/css">
	.st0{fill:#BFA093;}
</style>
<path class="st0" d="M486.9,255.9c-63.5-0.7-114.8-52.4-114.8-115.9c-63.6,0-115.1-51.3-116-114.6c-24.7-3.7-50,0.2-72.3,11.6
	l-62.6,31.9c-22.6,11.5-40.9,29.9-52.4,52.4L37,183.7c-11.5,22.7-15.6,48.3-11.6,73.4l11,69.2c4,25.1,15.8,48.3,33.7,66.2l49.7,49.7
	c17.9,17.9,41,29.6,66,33.6l69.5,11c25,4,50.5-0.1,73-11.6l62.6-31.9c22.6-11.5,40.9-29.9,52.4-52.4l31.9-62.5
	C486.5,306,490.6,280.6,486.9,255.9L486.9,255.9z M183.5,357.6c-16.1,0-29-13-29-29s13-29,29-29s29,13,29,29
	C212.4,344.7,199.5,357.6,183.5,357.6z M212.4,212.5c-16.1,0-29-13-29-29s13-29,29-29s29,13,29,29S228.4,212.5,212.4,212.5z
	 M357.5,328.6c-16.1,0-29-13-29-29s13-29,29-29s29,13,29,29S373.6,328.6,357.5,328.6z"/>
</svg>
