<?xml version="1.0" encoding="utf-8"?>
<!-- Generator: Adobe Illustrator 21.1.0, SVG Export Plug-In . SVG Version: 6.00 Build 0)  -->
<svg version="1.1" id="圖層_1" focusable="false" xmlns="http://www.w3.org/2000/svg" xmlns:xlink="http://www.w3.org/1999/xlink"
	 x="0px" y="0px" viewBox="0 0 512 512" style="enable-background:new 0 0 512 512;" xml:space="preserve">
<style type="text/css">
	.st0{fill:#FFFFFF;}
</style>
<path class="st0" d="M442.9,255.9c-51.4-0.6-92.9-42.4-92.9-93.8c-51.5,0-93.2-41.5-93.9-92.8c-20-3-40.5,0.2-58.5,9.4l-50.7,25.8
	c-18.3,9.3-33.1,24.2-42.4,42.4l-25.8,50.6c-9.3,18.4-12.6,39.1-9.4,59.4l8.9,56c3.2,20.3,12.8,39.1,27.3,53.6l40.2,40.2
	c14.5,14.5,33.2,24,53.4,27.2l56.3,8.9c20.2,3.2,40.9-0.1,59.1-9.4l50.7-25.8c18.3-9.3,33.1-24.2,42.4-42.4l25.8-50.6
	C442.6,296.5,445.9,275.9,442.9,255.9L442.9,255.9z M197.3,338.3c-13,0-23.5-10.5-23.5-23.5c0-13,10.5-23.5,23.5-23.5
	c13,0,23.5,10.5,23.5,23.5C220.7,327.8,210.3,338.3,197.3,338.3z M220.7,220.8c-13,0-23.5-10.5-23.5-23.5s10.5-23.5,23.5-23.5
	c13,0,23.5,10.5,23.5,23.5S233.7,220.8,220.7,220.8z M338.2,314.8c-13,0-23.5-10.5-23.5-23.5c0-13,10.5-23.5,23.5-23.5
	c13,0,23.5,10.5,23.5,23.5C361.7,304.3,351.2,314.8,338.2,314.8z"/>
</svg>
